<?xml version="1.0" encoding="UTF-8"?>
<svg id="Calque_2" data-name="Calque 2" xmlns="http://www.w3.org/2000/svg" xmlns:xlink="http://www.w3.org/1999/xlink" viewBox="0 0 48 47.99">
  <defs>
    <style>
      .cls-1 {
        fill: url(#Dégradé_sans_nom_30-2);
      }

      .cls-1, .cls-2, .cls-3 {
        stroke-width: 0px;
      }

      .cls-2 {
        fill: #654c9f;
      }

      .cls-3 {
        fill: url(#Dégradé_sans_nom_30);
      }
    </style>
    <radialGradient id="Dégradé_sans_nom_30" data-name="Dégradé sans nom 30" cx="-1478.89" cy="3588.37" fx="-1478.89" fy="3588.37" r="69.4" gradientTransform="translate(1637.32 3012.01) rotate(-3) scale(1 -.85)" gradientUnits="userSpaceOnUse">
      <stop offset="0" stop-color="#fed576"/>
      <stop offset=".26" stop-color="#f47133"/>
      <stop offset=".61" stop-color="#bc3081"/>
      <stop offset="1" stop-color="#4c63d2"/>
    </radialGradient>
    <radialGradient id="Dégradé_sans_nom_30-2" data-name="Dégradé sans nom 30" cx="-1489.72" cy="3375.83" fx="-1489.72" fy="3375.83" r="35.64" gradientTransform="translate(1649.94 2821.5) rotate(-3) scale(1 -.85)" xlink:href="#Dégradé_sans_nom_30"/>
  </defs>
  <g id="Calque_1-2" data-name="Calque 1">
    <g id="Symbol">
      <g>
        <path class="cls-3" d="m8.28,1.26c-1.58.61-2.92,1.43-4.25,2.77-1.34,1.33-2.16,2.67-2.77,4.24-.6,1.52-1,3.27-1.11,5.82s-.15,3.38-.15,9.89.03,7.34.15,9.89c.12,2.56.53,4.3,1.11,5.82.61,1.58,1.43,2.92,2.77,4.25,1.34,1.34,2.67,2.16,4.25,2.77,1.52.6,3.27,1,5.82,1.11,2.56.12,3.38.15,9.89.15s7.34-.03,9.89-.15c2.56-.12,4.3-.53,5.82-1.11,1.58-.61,2.92-1.43,4.25-2.77,1.34-1.34,2.16-2.67,2.77-4.25.6-1.52,1-3.27,1.11-5.82.12-2.56.15-3.38.15-9.89s-.03-7.34-.15-9.89-.53-4.3-1.11-5.82c-.61-1.57-1.43-2.92-2.76-4.24-1.34-1.34-2.67-2.16-4.25-2.77-1.52-.6-3.27-1-5.82-1.11s-3.38-.15-9.89-.15-7.34.03-9.89.15c-2.57.11-4.31.52-5.83,1.11Zm25.41,3.2c2.34.11,3.61.5,4.46.83,1.12.44,1.92.96,2.76,1.8.84.84,1.36,1.64,1.8,2.76.33.85.72,2.12.83,4.46.12,2.53.14,3.29.14,9.7s-.03,7.17-.14,9.7c-.11,2.34-.5,3.61-.83,4.46-.44,1.12-.96,1.92-1.8,2.76-.84.84-1.64,1.36-2.76,1.8-.85.33-2.12.72-4.46.83-2.53.12-3.29.14-9.7.14s-7.17-.03-9.7-.14c-2.34-.11-3.61-.5-4.46-.83-1.12-.44-1.92-.96-2.76-1.8-.84-.84-1.36-1.64-1.8-2.76-.33-.85-.72-2.12-.83-4.46-.12-2.53-.14-3.29-.14-9.7s.03-7.17.14-9.7c.11-2.34.5-3.61.83-4.46.44-1.12.96-1.92,1.8-2.76.84-.84,1.64-1.36,2.76-1.8.85-.33,2.12-.72,4.46-.83,2.53-.12,3.29-.14,9.7-.14s7.17.02,9.7.14Z"/>
        <path class="cls-1" d="m11.68,24c0,6.81,5.52,12.32,12.32,12.32s12.32-5.52,12.32-12.32-5.51-12.32-12.32-12.32-12.32,5.51-12.32,12.32Zm20.32,0c0,4.42-3.58,8-8,8s-8-3.58-8-8,3.58-8,8-8,8,3.58,8,8Z"/>
        <circle class="cls-2" cx="36.82" cy="11.19" r="2.88"/>
      </g>
    </g>
  </g>
</svg>