<?xml version="1.0" encoding="UTF-8"?>
<svg id="Calque_2" data-name="Calque 2" xmlns="http://www.w3.org/2000/svg" viewBox="0 0 48 48">
  <defs>
    <style>
      .cls-1 {
        fill: #fff;
      }

      .cls-1, .cls-2 {
        fill-rule: evenodd;
        stroke-width: 0px;
      }

      .cls-2 {
        fill: #007ebb;
      }
    </style>
  </defs>
  <g id="Calque_1-2" data-name="Calque 1">
    <g>
      <path class="cls-2" d="m5.33,48h37.33c2.95,0,5.33-2.39,5.33-5.33V5.33c0-2.95-2.39-5.33-5.33-5.33H5.33C2.39,0,0,2.39,0,5.33v37.33c0,2.95,2.39,5.33,5.33,5.33Z"/>
      <path class="cls-1" d="m41.33,41.33h-7.12v-12.13c0-3.33-1.26-5.19-3.9-5.19-2.86,0-4.36,1.93-4.36,5.19v12.13h-6.86v-23.11h6.86v3.11s2.06-3.82,6.97-3.82,8.41,2.99,8.41,9.18v14.63ZM10.9,15.2c-2.34,0-4.23-1.91-4.23-4.26s1.89-4.26,4.23-4.26,4.23,1.91,4.23,4.26-1.89,4.26-4.23,4.26Zm-3.54,26.14h7.16v-23.11h-7.16v23.11Z"/>
    </g>
  </g>
</svg>