<?xml version="1.0" encoding="UTF-8"?>
<svg id="Calque_2" data-name="Calque 2" xmlns="http://www.w3.org/2000/svg" viewBox="0 0 306.99 80.06">
  <defs>
    <style>
      .cls-1 {
        fill: #fbc723;
      }

      .cls-1, .cls-2 {
        stroke-width: 0px;
      }

      .cls-2 {
        fill: #fff;
      }
    </style>
  </defs>
  <g id="Calque_1-2" data-name="Calque 1">
    <g id="Groupe_1" data-name="Groupe 1">
      <path id="Tracé_1" data-name="Tracé 1" class="cls-2" d="m35.67,42.03v3.05h-13.76c-.2,0-.4.08-.54.22L4.2,62.48c-.3.3-.3.78,0,1.08.14.14.34.22.54.22h40.36c.2,0,.4-.08.54-.22l18.32-18.32c1.5-1.5,1.5-3.93,0-5.43h0s-18-18-18-18c-.3-.3-.78-.3-1.08,0,0,0,0,0,0,0l-18.93,18.93c-.3.3-.3.78,0,1.08.14.14.34.22.54.22h9.18Z"/>
      <path id="Tracé_2" data-name="Tracé 2" class="cls-1" d="m29.4,21.75v-3.05h13.76c.2,0,.4-.08.54-.22L60.87,1.3c.3-.3.3-.78,0-1.08C60.73.08,60.54,0,60.33,0H19.97c-.2,0-.4.08-.54.22L1.12,18.54c-1.5,1.5-1.5,3.93,0,5.43,0,0,0,0,0,0l18,18c.3.3.78.3,1.08,0,0,0,0,0,0,0l18.93-18.93c.3-.3.3-.78,0-1.08-.14-.14-.34-.22-.54-.22h-9.19Z"/>
      <path id="Tracé_3" data-name="Tracé 3" class="cls-2" d="m108.15,25.9c1.04-2.29,2.6-4.31,4.55-5.89,2.13-1.7,4.58-2.97,7.2-3.73,3.09-.91,6.29-1.34,9.51-1.3,3.3-.04,6.58.43,9.73,1.4,2.67.83,5.13,2.21,7.24,4.04,1.99,1.78,3.54,3.99,4.54,6.47,1.09,2.77,1.62,5.73,1.57,8.7v28.18h-12.91v-12.41h.06c-.33,1.36-.8,2.69-1.42,3.95-.59,1.2-1.31,2.33-2.15,3.36-.83,1.01-1.78,1.92-2.83,2.7-1.07.8-2.22,1.47-3.44,2.01-1.28.57-2.62.98-3.99,1.25-1.47.28-2.96.43-4.46.42-2.25.03-4.49-.31-6.63-1-1.87-.61-3.61-1.57-5.11-2.84-1.41-1.22-2.53-2.74-3.29-4.44-.79-1.81-1.19-3.77-1.16-5.74-.04-2.09.43-4.16,1.35-6.04.91-1.79,2.24-3.34,3.88-4.51,1.87-1.32,3.97-2.28,6.19-2.82,2.72-.68,5.52-1.01,8.32-.97h15v7.84h-13.66c-1.18-.02-2.36.1-3.52.33-.9.18-1.77.52-2.55,1.01-.65.41-1.19.99-1.56,1.67-.36.71-.55,1.51-.53,2.31-.01.83.18,1.64.56,2.38.38.71.94,1.32,1.62,1.76.8.52,1.69.88,2.62,1.09,1.17.27,2.37.39,3.57.38,1.21,0,2.41-.1,3.6-.32,1.09-.2,2.15-.51,3.17-.93.93-.38,1.82-.86,2.64-1.45.75-.55,1.43-1.19,2.01-1.92.55-.69.98-1.46,1.28-2.29.29-.84.44-1.72.44-2.61v-10.34c.02-1.5-.22-2.99-.71-4.4-.44-1.23-1.14-2.36-2.05-3.29-.93-.92-2.05-1.62-3.29-2.06-1.42-.49-2.92-.73-4.43-.71-1.46-.03-2.92.17-4.32.59-1.11.34-2.14.92-3.01,1.69-.79.74-1.4,1.66-1.77,2.68-.4,1.15-.6,2.36-.58,3.57h-12.86c-.04-2.68.5-5.33,1.58-7.78h0Z"/>
      <path id="Tracé_4" data-name="Tracé 4" class="cls-2" d="m170.68,30.92l-.06.04c.46-2.34,1.2-4.61,2.22-6.77.87-1.86,2.05-3.55,3.48-5.02,1.32-1.34,2.91-2.4,4.65-3.12,1.81-.73,3.75-1.1,5.7-1.08,1.81,0,3.62.27,5.34.83,1.66.55,3.23,1.35,4.65,2.38,1.46,1.07,2.75,2.34,3.85,3.78,1.17,1.54,2.15,3.23,2.9,5.01.82,1.95,1.43,3.99,1.82,6.07.43,2.3.65,4.63.64,6.97.01,2.34-.2,4.67-.64,6.97-.39,2.09-1,4.12-1.82,6.08-.75,1.79-1.72,3.47-2.9,5.01-1.1,1.44-2.39,2.71-3.85,3.78-1.41,1.04-2.98,1.84-4.65,2.39-1.72.56-3.53.84-5.34.83-1.95.02-3.89-.35-5.7-1.08-1.74-.72-3.33-1.78-4.65-3.12-1.43-1.47-2.61-3.17-3.48-5.03-1.02-2.16-1.76-4.44-2.22-6.78l.06.06v30.94h-12.91V16.27h12.91v14.65Zm.33,13.21c.2,1.18.53,2.34.98,3.45.41.99.95,1.91,1.61,2.75.62.78,1.37,1.46,2.21,2,.86.55,1.79.96,2.77,1.22,1.07.28,2.18.42,3.29.41,1.63.04,3.26-.26,4.77-.88,1.35-.57,2.54-1.49,3.44-2.65.98-1.3,1.69-2.79,2.09-4.37.5-1.97.74-4,.71-6.03.03-2.03-.2-4.06-.7-6.03-.39-1.58-1.1-3.07-2.09-4.36-.91-1.16-2.1-2.06-3.45-2.64-1.51-.62-3.14-.92-4.77-.88-1.11,0-2.22.13-3.29.41-.98.26-1.92.67-2.77,1.22-.84.54-1.58,1.21-2.21,1.99-.66.83-1.21,1.76-1.61,2.74-.45,1.11-.78,2.27-.98,3.45-.44,2.73-.44,5.51,0,8.24v-.04Z"/>
      <path id="Tracé_5" data-name="Tracé 5" class="cls-2" d="m222.56,46.68c.49,1.6,1.3,3.08,2.38,4.36,1.03,1.19,2.33,2.13,3.78,2.75,1.6.66,3.32.99,5.05.96,1.17,0,2.33-.14,3.46-.44,1.03-.28,2-.73,2.87-1.34.87-.62,1.64-1.37,2.28-2.22.7-.94,1.27-1.97,1.69-3.07h12.13c-.6,2.58-1.63,5.04-3.04,7.28-1.33,2.1-3.03,3.96-5.01,5.47-2.01,1.52-4.27,2.68-6.68,3.44-2.61.82-5.33,1.22-8.07,1.2-3.35.05-6.68-.57-9.8-1.81-2.86-1.15-5.44-2.89-7.57-5.12-2.15-2.28-3.81-4.98-4.89-7.93-1.19-3.28-1.78-6.76-1.73-10.25-.05-3.47.53-6.92,1.71-10.19,1.05-2.94,2.7-5.63,4.84-7.9,2.11-2.21,4.67-3.95,7.5-5.1,3.08-1.24,6.38-1.85,9.7-1.81,3.27-.05,6.52.56,9.56,1.78,2.78,1.13,5.29,2.85,7.35,5.04,2.09,2.27,3.69,4.95,4.71,7.86,1.15,3.29,1.71,6.76,1.66,10.25,0,.57-.01,1.15-.04,1.73s-.07,1.17-.13,1.78h-38.85v-7.97h32.04l-5.24,7.84c.06-.56.1-1.12.12-1.67s.03-1.1.03-1.63c.03-2.17-.21-4.33-.72-6.43-.4-1.67-1.12-3.25-2.12-4.64-.9-1.22-2.1-2.2-3.48-2.83-1.52-.67-3.16-.99-4.82-.96-1.67-.03-3.32.29-4.85.95-1.4.62-2.64,1.56-3.61,2.75-1.03,1.31-1.8,2.81-2.25,4.41-.54,1.92-.81,3.91-.78,5.9v1.74c-.03,1.97.25,3.93.83,5.81h0Z"/>
      <path id="Tracé_6" data-name="Tracé 6" class="cls-2" d="m273.1,46.68c.49,1.6,1.3,3.08,2.38,4.36,1.03,1.19,2.33,2.13,3.78,2.75,1.6.66,3.32.99,5.05.96,1.17,0,2.33-.14,3.46-.44,1.03-.28,2-.73,2.87-1.34.87-.62,1.64-1.37,2.28-2.22.7-.94,1.27-1.97,1.69-3.07h12.13c-.6,2.58-1.63,5.04-3.04,7.28-1.33,2.1-3.03,3.96-5.01,5.47-2.01,1.52-4.27,2.68-6.68,3.44-2.61.82-5.33,1.22-8.07,1.2-3.35.05-6.68-.57-9.8-1.81-2.86-1.15-5.44-2.89-7.57-5.12-2.15-2.28-3.81-4.98-4.89-7.93-1.19-3.28-1.78-6.76-1.73-10.25-.05-3.47.53-6.92,1.71-10.19,1.05-2.94,2.7-5.63,4.84-7.9,2.11-2.21,4.67-3.95,7.5-5.1,3.08-1.24,6.38-1.85,9.7-1.81,3.27-.05,6.52.56,9.56,1.78,2.78,1.13,5.29,2.85,7.35,5.04,2.09,2.27,3.7,4.94,4.71,7.86,1.15,3.29,1.71,6.76,1.66,10.25,0,.57-.01,1.15-.04,1.73s-.07,1.17-.13,1.78h-38.85v-7.97h32.04l-5.24,7.84c.06-.56.1-1.12.12-1.67s.03-1.1.03-1.63c.03-2.17-.21-4.33-.72-6.43-.4-1.67-1.12-3.25-2.12-4.64-.9-1.22-2.1-2.2-3.48-2.83-1.52-.67-3.16-.99-4.82-.96-1.67-.03-3.32.29-4.85.95-1.4.62-2.64,1.56-3.61,2.75-1.03,1.31-1.8,2.81-2.25,4.41-.54,1.92-.81,3.91-.78,5.9v1.74c-.03,1.97.25,3.93.83,5.81h-.01Z"/>
      <path id="Tracé_7" data-name="Tracé 7" class="cls-2" d="m100.12,27.07c-.57-2.39-1.6-4.65-3.02-6.65-1.27-1.75-2.97-3.15-4.93-4.07-2.13-.95-4.45-1.43-6.79-1.38-2.08-.02-4.15.33-6.1,1.04-1.82.68-3.48,1.72-4.89,3.05-1.49,1.43-2.7,3.11-3.59,4.97-.99,2.06-1.7,4.25-2.12,6.5V.6C68.68.27,68.42,0,68.08,0h0c-.65,0-1.27.27-1.72.73l-9.9,10.36c-.44.46-.69,1.08-.69,1.72v13.37c0,.53.21,1.04.59,1.41l10.21,10.21c2.6,2.6,2.6,6.81,0,9.41,0,0,0,0,0,0l-9.93,9.93c-.55.55-.87,1.31-.87,2.09v3.57c0,.53.43.96.96.96h11.95v-24.93c0-1.26.09-2.53.31-3.77.19-1.08.49-2.13.9-3.14.37-.9.87-1.73,1.48-2.48.58-.7,1.27-1.31,2.04-1.79.79-.49,1.65-.85,2.55-1.09.99-.25,2.02-.38,3.04-.37,1.39-.03,2.77.23,4.06.75,1.14.49,2.14,1.27,2.89,2.26.82,1.13,1.41,2.42,1.72,3.78.4,1.74.6,3.52.57,5.31v25.45h12.91v-27.6c.04-3.06-.3-6.12-1.03-9.1v.03Z"/>
    </g>
  </g>
</svg>