<?xml version="1.0" encoding="UTF-8"?>
<svg id="Calque_2" data-name="Calque 2" xmlns="http://www.w3.org/2000/svg" viewBox="0 0 48 48">
  <defs>
    <style>
      .cls-1, .cls-2 {
        stroke-width: 0px;
      }

      .cls-2 {
        fill: #fff;
      }
    </style>
  </defs>
  <g id="Calque_1-2" data-name="Calque 1">
    <rect class="cls-2" width="48" height="48"/>
    <g>
      <path class="cls-1" d="m11.91,33.89c-.48,0-.93-.18-1.27-.52l-7.65-8.17c-.65-.7-.65-1.78,0-2.48l7.68-8.2c.35-.37.82-.57,1.32-.57.46,0,.9.17,1.24.49l.02.02c.71.7.74,1.83.06,2.55l-6.52,6.96,6.52,6.96c.59.69.56,1.74-.11,2.42-.34.35-.8.54-1.3.54Z"/>
      <path class="cls-1" d="m36.09,33.89c-.43,0-.85-.16-1.18-.44-.76-.65-.84-1.8-.19-2.56l6.49-6.92s-6.61-7.06-6.65-7.1c-.65-.75-.57-1.9.19-2.55.33-.28.75-.44,1.18-.44.53,0,1.03.23,1.38.63l7.7,8.22c.65.7.65,1.78,0,2.48l-7.68,8.2c-.31.3-.76.49-1.24.49Z"/>
      <path class="cls-1" d="m19.17,37.32c-.25,0-.5-.05-.74-.16-.91-.41-1.33-1.48-.92-2.39l9.62-22.97c.28-.68.94-1.11,1.67-1.11.24,0,.48.05.7.14.92.39,1.35,1.45.97,2.37l-9.65,23.05c-.29.65-.94,1.08-1.66,1.08h0Z"/>
    </g>
  </g>
</svg>