<?xml version="1.0" encoding="UTF-8"?>
<svg id="Calque_2" data-name="Calque 2" xmlns="http://www.w3.org/2000/svg" xmlns:xlink="http://www.w3.org/1999/xlink" viewBox="0 0 2842.08 2800">
  <defs>
    <style>
      .cls-1 {
        fill: url(#Dégradé_sans_nom_24-3);
      }

      .cls-1, .cls-2, .cls-3, .cls-4, .cls-5, .cls-6, .cls-7, .cls-8, .cls-9, .cls-10, .cls-11, .cls-12, .cls-13, .cls-14, .cls-15, .cls-16, .cls-17, .cls-18, .cls-19, .cls-20, .cls-21, .cls-22, .cls-23, .cls-24, .cls-25, .cls-26, .cls-27, .cls-28, .cls-29, .cls-30, .cls-31, .cls-32, .cls-33, .cls-34, .cls-35 {
        stroke-width: 0px;
      }

      .cls-2 {
        fill: #e8b81f;
      }

      .cls-3 {
        fill: url(#Dégradé_sans_nom_8-3);
      }

      .cls-4 {
        opacity: .74;
      }

      .cls-4, .cls-15, .cls-22, .cls-33 {
        isolation: isolate;
      }

      .cls-4, .cls-22, .cls-27 {
        fill: #fff;
      }

      .cls-36 {
        opacity: .5;
      }

      .cls-5 {
        fill: url(#Dégradé_sans_nom_28);
      }

      .cls-6 {
        fill: #d8dee8;
      }

      .cls-7 {
        fill: url(#Dégradé_sans_nom_24-4);
      }

      .cls-8 {
        fill: url(#Dégradé_sans_nom_3);
      }

      .cls-9 {
        fill: url(#Dégradé_sans_nom_28-4);
      }

      .cls-10 {
        fill: #fdc921;
      }

      .cls-11 {
        fill: #f4f7fa;
      }

      .cls-12 {
        fill: #26264f;
      }

      .cls-13 {
        fill: url(#Dégradé_sans_nom_28-3);
      }

      .cls-14 {
        fill: url(#Dégradé_sans_nom_8);
      }

      .cls-15 {
        fill: url(#Dégradé_sans_nom_24-5);
      }

      .cls-15, .cls-37, .cls-33 {
        opacity: .3;
      }

      .cls-16, .cls-33 {
        fill: #bfc8d6;
      }

      .cls-17 {
        fill: url(#Dégradé_sans_nom_28-8);
      }

      .cls-18 {
        fill: url(#Dégradé_sans_nom_22-2);
      }

      .cls-19 {
        fill: none;
      }

      .cls-20 {
        fill: url(#Dégradé_sans_nom_24-2);
      }

      .cls-21 {
        fill: url(#Dégradé_sans_nom_28-7);
      }

      .cls-38 {
        clip-path: url(#clippath-1);
      }

      .cls-22 {
        opacity: .48;
      }

      .cls-23 {
        fill: url(#Dégradé_sans_nom_28-5);
      }

      .cls-24 {
        fill: url(#Dégradé_sans_nom_28-6);
      }

      .cls-25 {
        fill: url(#Dégradé_sans_nom_5-2);
      }

      .cls-26 {
        fill: url(#Dégradé_sans_nom_24);
      }

      .cls-28 {
        fill: url(#Dégradé_sans_nom_22-3);
      }

      .cls-29 {
        fill: url(#Dégradé_sans_nom_8-2);
      }

      .cls-30 {
        fill: url(#Dégradé_sans_nom_5);
      }

      .cls-39 {
        clip-path: url(#clippath);
      }

      .cls-31 {
        fill: url(#Dégradé_sans_nom_28-2);
      }

      .cls-32 {
        fill: url(#Dégradé_sans_nom);
      }

      .cls-40 {
        opacity: .2;
      }

      .cls-34 {
        fill: url(#Dégradé_sans_nom_28-9);
      }

      .cls-35 {
        fill: url(#Dégradé_sans_nom_22);
      }
    </style>
    <linearGradient id="Dégradé_sans_nom" data-name="Dégradé sans nom" x1="2228.99" y1="1072.51" x2="4951.83" y2="1044.52" gradientTransform="translate(0 2800) scale(1 -1)" gradientUnits="userSpaceOnUse">
      <stop offset="0" stop-color="#aa80f9"/>
      <stop offset="1" stop-color="#6165d7"/>
    </linearGradient>
    <clipPath id="clippath">
      <path class="cls-19" d="m1508.61,2297.27c-156.26-210.36-87.3-535.7,36.43-591.13,64.36-28.83,116.89,27.29,179.44-11.77,69.3-43.28,39.06-133.57,97.15-293.68,30.01-82.73,84.44-232.74,189.84-259.46,104.52-26.49,154.97,94.69,269,72.41,107.83-21.07,103.71-137.43,246.75-200.16,13.31-5.83,163.82-69.67,247.26-.35,84.78,70.42,70.39,253.4-12.9,346.05-75.67,84.17-185.98,69.03-197.42,128.55-12.61,65.59,117.21,105.45,110.73,174.08-9.37,99.19-287.45,88.26-338.26,234.06-29.88,85.74,52.88,127.95,39,243.47-17.92,149.1-177.77,261.83-300.18,305.21-177.39,62.86-431.41,35.05-566.85-147.28Z"/>
    </clipPath>
    <linearGradient id="Dégradé_sans_nom_8" data-name="Dégradé sans nom 8" x1="739.87" y1="1687.75" x2="3055.79" y2="1663.93" gradientTransform="translate(0 2800) scale(1 -1)" gradientUnits="userSpaceOnUse">
      <stop offset="0" stop-color="#ff9085"/>
      <stop offset="1" stop-color="#fb6fbb"/>
    </linearGradient>
    <clipPath id="clippath-1">
      <path class="cls-19" d="m841.2,1973.59c-259.14,38.92-513.78-175-504.48-310.25,4.84-70.35,79.08-90.31,74.04-163.88-5.59-81.51-99.49-97.31-213.45-223.89-58.88-65.41-165.65-184.01-139.64-289.58,25.8-104.7,156.47-92.19,190.45-203.31,32.14-105.06-72.48-156.17-60.53-311.91,1.11-14.49,15.59-177.33,116.02-218.35,102.03-41.68,256.72,57.11,299.29,174.19,38.67,106.37-26.58,196.59,20.55,234.68,51.94,41.98,148.2-53.82,205.7-15.81,83.12,54.93-57.36,295.17,47.4,408.6,61.6,66.7,137.79,13.53,233.19,80.13,123.14,85.95,147.41,280.05,128.1,408.47-27.99,186.11-172.03,397.18-396.65,430.91Z"/>
    </clipPath>
    <linearGradient id="Dégradé_sans_nom_3" data-name="Dégradé sans nom 3" x1="140.57" y1="207.18" x2="2765.02" y2="207.18" gradientTransform="translate(0 2800) scale(1 -1)" gradientUnits="userSpaceOnUse">
      <stop offset=".49" stop-color="#ebeff2"/>
      <stop offset="1" stop-color="#fff"/>
    </linearGradient>
    <linearGradient id="Dégradé_sans_nom_5" data-name="Dégradé sans nom 5" x1="1879.14" y1="2682.09" x2="233.2" y2="-609.8" gradientTransform="translate(0 2800) scale(1 -1)" gradientUnits="userSpaceOnUse">
      <stop offset="0" stop-color="#e38ddd"/>
      <stop offset="1" stop-color="#9571f6"/>
    </linearGradient>
    <linearGradient id="Dégradé_sans_nom_5-2" data-name="Dégradé sans nom 5" x1="1167.27" y1="2784.9" x2="1453.26" y2="1640.94" xlink:href="#Dégradé_sans_nom_5"/>
    <linearGradient id="Dégradé_sans_nom_24" data-name="Dégradé sans nom 24" x1="1695.58" y1="1978.23" x2="2140.17" y2="1086.06" gradientTransform="translate(0 2800) scale(1 -1)" gradientUnits="userSpaceOnUse">
      <stop offset="0" stop-color="#311944"/>
      <stop offset="1" stop-color="#893976"/>
    </linearGradient>
    <linearGradient id="Dégradé_sans_nom_8-2" data-name="Dégradé sans nom 8" x1="1957.03" y1="1392.23" x2="2388.86" y2="591.31" xlink:href="#Dégradé_sans_nom_8"/>
    <linearGradient id="Dégradé_sans_nom_8-3" data-name="Dégradé sans nom 8" x1="1838.44" y1="1339" x2="2257.95" y2="497.15" xlink:href="#Dégradé_sans_nom_8"/>
    <linearGradient id="Dégradé_sans_nom_22" data-name="Dégradé sans nom 22" x1="-3188.32" y1="86.48" x2="-3092.88" y2="86.48" gradientTransform="translate(-2357.69 2755.36) rotate(178.34)" gradientUnits="userSpaceOnUse">
      <stop offset="0" stop-color="#444b8c"/>
      <stop offset="1" stop-color="#26264f"/>
    </linearGradient>
    <linearGradient id="Dégradé_sans_nom_28" data-name="Dégradé sans nom 28" x1="1105.65" y1="253.35" x2="1139.86" y2="253.35" gradientTransform="translate(1870.91 2800) rotate(-180)" gradientUnits="userSpaceOnUse">
      <stop offset="0" stop-color="#ffc444"/>
      <stop offset="1" stop-color="#f36f56"/>
    </linearGradient>
    <linearGradient id="Dégradé_sans_nom_22-2" data-name="Dégradé sans nom 22" x1="-2889.97" y1="-1048.31" x2="-2788.56" y2="-1048.31" gradientTransform="translate(-1927.75 2305.85) rotate(164.63)" xlink:href="#Dégradé_sans_nom_22"/>
    <linearGradient id="Dégradé_sans_nom_28-2" data-name="Dégradé sans nom 28" x1="800.57" y1="264.64" x2="842.83" y2="264.64" xlink:href="#Dégradé_sans_nom_28"/>
    <linearGradient id="Dégradé_sans_nom_24-2" data-name="Dégradé sans nom 24" x1="6436.2" y1="1039.13" x2="6384.63" y2="1185.25" gradientTransform="translate(-5492.74 2800) scale(1 -1)" xlink:href="#Dégradé_sans_nom_24"/>
    <linearGradient id="Dégradé_sans_nom_24-3" data-name="Dégradé sans nom 24" x1="6210.91" y1="1250.83" x2="6229.82" y2="1120.18" gradientTransform="translate(-5492.74 2800) scale(1 -1)" xlink:href="#Dégradé_sans_nom_24"/>
    <linearGradient id="Dégradé_sans_nom_28-3" data-name="Dégradé sans nom 28" x1="1046.76" y1="1230.32" x2="1153.63" y2="1230.32" xlink:href="#Dégradé_sans_nom_28"/>
    <linearGradient id="Dégradé_sans_nom_28-4" data-name="Dégradé sans nom 28" x1="1127.24" y1="1691.07" x2="1123.45" y2="1427.81" xlink:href="#Dégradé_sans_nom_28"/>
    <linearGradient id="Dégradé_sans_nom_28-5" data-name="Dégradé sans nom 28" x1="1097.59" y1="1750" x2="1112.06" y2="1609.51" xlink:href="#Dégradé_sans_nom_28"/>
    <linearGradient id="Dégradé_sans_nom_22-3" data-name="Dégradé sans nom 22" x1="6585.59" y1="1239.39" x2="6485.04" y2="1382.16" gradientTransform="translate(-5492.74 2800) scale(1 -1)" xlink:href="#Dégradé_sans_nom_22"/>
    <linearGradient id="Dégradé_sans_nom_24-4" data-name="Dégradé sans nom 24" x1="6392.72" y1="1003.1" x2="6612.76" y2="1450.05" gradientTransform="translate(-5492.74 2800) scale(1 -1)" xlink:href="#Dégradé_sans_nom_24"/>
    <linearGradient id="Dégradé_sans_nom_24-5" data-name="Dégradé sans nom 24" x1="6285.24" y1="1289.97" x2="6768.63" y2="1289.97" gradientTransform="translate(-5492.74 2800) scale(1 -1)" xlink:href="#Dégradé_sans_nom_24"/>
    <linearGradient id="Dégradé_sans_nom_28-6" data-name="Dégradé sans nom 28" x1="587.51" y1="1175.66" x2="659.61" y2="1175.66" xlink:href="#Dégradé_sans_nom_28"/>
    <linearGradient id="Dégradé_sans_nom_28-7" data-name="Dégradé sans nom 28" x1="1461.94" y1="3418.44" x2="2194.99" y2="1947.39" gradientTransform="translate(0 2800) scale(1 -1)" xlink:href="#Dégradé_sans_nom_28"/>
    <linearGradient id="Dégradé_sans_nom_28-8" data-name="Dégradé sans nom 28" x1="1893.03" y1="2452.21" x2="2605.04" y2="1131.63" gradientTransform="translate(0 2800) scale(1 -1)" xlink:href="#Dégradé_sans_nom_28"/>
    <linearGradient id="Dégradé_sans_nom_28-9" data-name="Dégradé sans nom 28" x1="1697.49" y1="2364.44" x2="2389.19" y2="976.36" gradientTransform="translate(0 2800) scale(1 -1)" xlink:href="#Dégradé_sans_nom_28"/>
  </defs>
  <g id="Calque_1-2" data-name="Calque 1">
    <g id="Illustration">
      <g>
        <path class="cls-11" d="m2721.2,800.06C2796.13,117.64,2134.52-119.44,1665.5,55.29,1192.67,231.43,1083.05-60.56,418.18,22.87-255.04,107.34,86.76,1164.12,86.76,1164.12c0,0,107.12,918.94,234.03,1342.52,126.22,421.29,1334.43,268.87,1628.35,256.3,292.22-12.5,546.15,11.63,800.4-450.94,253.78-461.73-103.01-831.77-28.33-1511.93Z"/>
        <path class="cls-33" d="m1714.45,550.71l-51.79,3.49c-5.95-23.11-13.75-45.44-23.44-66.72l42.97-28.84c11.72-7.87,14.74-23.79,6.73-35.57l-50.12-73.74c-8.02-11.8-24.06-15.02-35.82-7.16l-43.55,29.06c-16.54-16.95-34.5-32.48-53.72-46.4l22.96-47.15c6.19-12.71.77-28.15-12.11-34.49l-80.69-39.71c-12.93-6.36-28.46-1.2-34.68,11.54l-23.12,47.3c-22.61-6.58-46.02-11.19-69.96-13.85l-4.03-53.04c-1.08-14.24-13.62-25.1-28.01-24.25l-90.19,5.32c-14.45.85-25.3,13.12-24.21,27.4l4.04,53.2c-23.49,5.55-46.18,12.99-67.82,22.31l-30.42-44.35c-8.2-11.96-24.62-15.24-36.67-7.33l-75.48,49.57c-12.09,7.94-15.22,24.1-6.98,36.08l30.52,44.36c-17.33,16.38-33.17,34.25-47.36,53.37l-48.84-23.59c-13.22-6.39-29.12-1.1-35.5,11.81l-39.96,80.84c-6.4,12.94-.83,28.6,12.43,34.96l48.48,23.27c-6.62,22.72-11.15,46.25-13.65,70.32l-53.68,3.62c-14.69.99-25.73,13.47-24.63,27.88l6.84,90.08c1.09,14.41,13.9,25.24,28.59,24.21l53.24-3.75c6,23.62,13.98,46.42,23.89,68.13l-43.8,29.23c-12.16,8.12-15.31,24.37-7.02,36.3l51.75,74.52c8.27,11.9,24.8,14.95,36.92,6.82l43.45-29.16c17.05,17.27,35.62,33,55.45,47.06l-22.71,46.46c-6.35,12.98-.81,28.54,12.35,34.74l82.18,38.71c13.12,6.18,28.86.67,35.18-12.29l22.41-46.02c23.19,6.42,47.17,10.75,71.66,13.06l3.86,50.87c1.08,14.28,13.67,24.94,28.1,23.8l90.06-7.1c14.37-1.13,25.14-13.6,24.06-27.84l-3.85-50.72c23.69-6.02,46.53-13.93,68.24-23.77l28.75,41.78c8.08,11.75,24.23,14.73,36.06,6.66l73.86-50.36c11.79-8.04,14.82-24.06,6.77-35.79l-28.83-42.04c17.07-16.66,32.66-34.75,46.54-54.09l46.08,22.12c12.82,6.16,28.21.78,34.37-12l38.46-79.84c6.14-12.75.76-28.1-12.03-34.28l-46.18-22.31c6.29-22.52,10.57-45.8,12.84-69.61l51.37-3.62c14.14-1,24.72-13.25,23.65-27.37l-6.7-88.3c-1.07-14.12-13.39-24.79-27.53-23.84Zm-466.87-158.66c145.16-9.22,271,99.46,281.87,242.69,10.87,143.23-97.26,268.04-242.29,278.83-145.91,10.85-273.76-97.69-284.75-242.49-10.99-144.81,99.14-269.75,245.17-279.03Z"/>
        <g>
          <path id="SVGID" class="cls-32" d="m1508.61,2297.27c-156.26-210.36-87.3-535.7,36.43-591.13,64.36-28.83,116.89,27.29,179.44-11.77,69.3-43.28,39.06-133.57,97.15-293.68,30.01-82.73,84.44-232.74,189.84-259.46,104.52-26.49,154.97,94.69,269,72.41,107.83-21.07,103.71-137.43,246.75-200.16,13.31-5.83,163.82-69.67,247.26-.35,84.78,70.42,70.39,253.4-12.9,346.05-75.67,84.17-185.98,69.03-197.42,128.55-12.61,65.59,117.21,105.45,110.73,174.08-9.37,99.19-287.45,88.26-338.26,234.06-29.88,85.74,52.88,127.95,39,243.47-17.92,149.1-177.77,261.83-300.18,305.21-177.39,62.86-431.41,35.05-566.85-147.28Z"/>
          <g class="cls-39">
            <g>
              <path class="cls-27" d="m1569.84,2466.61l-7.07-4.36c168.8-273.75,343.27-522.29,518.55-738.72,140.26-173.18,281.35-326.31,419.36-455.13,235.19-219.53,382.01-293.33,383.47-294.05l3.68,7.44c-1.45.72-147.5,74.2-381.92,293.09-216.38,202.04-554.42,572.8-936.07,1191.72Z"/>
              <path class="cls-27" d="m2478.88,1290.25c31.46-255.5,172.05-428.08,173.46-429.8l6.4,5.29c-1.4,1.69-140.47,172.52-171.62,425.52l-8.24-1.02Z"/>
              <path class="cls-27" d="m2055.57,1754.05c-54.02-275.19-39.18-453.8-17.21-555.18,23.93-110.43,60.35-154.92,61.88-156.76l6.38,5.32c-.37.44-36.91,45.29-60.34,154.09-21.65,100.53-36.19,277.72,17.44,550.91l-8.15,1.6Z"/>
              <path class="cls-27" d="m1711.45,2233.32c-200.16-447.56-125.7-726.89-124.93-729.65l8,2.24c-.19.69-19.28,73.16-12.06,201.69,6.35,113.18,35.21,295.67,136.57,522.33l-7.58,3.39Z"/>
              <path class="cls-27" d="m2196.64,1713.72c-28.5-3.82-57.27-9.26-86.13-16.59l2.05-8.05c188.59,47.93,374.17,14.11,496.64-22.7,132.76-39.91,221.89-91.76,222.77-92.28l4.21,7.17c-.89.52-90.89,52.88-224.59,93.07-104.76,31.49-255.38,60.79-414.94,39.39Z"/>
              <path class="cls-27" d="m1822.14,2154.08c-15.39-2.06-30.91-4.7-46.57-7.95l1.69-8.13c198.63,41.27,376.51-18.45,490.77-75.8,123.9-62.2,201.65-135.01,202.42-135.74l5.7,6.04c-.78.74-79.42,74.38-204.4,137.12-106.44,53.43-267.61,108.88-449.62,84.46Z"/>
            </g>
          </g>
        </g>
        <g>
          <path id="SVGID-2" data-name="SVGID" class="cls-14" d="m841.2,1973.59c-259.14,38.92-513.78-175-504.48-310.25,4.84-70.35,79.08-90.31,74.04-163.88-5.59-81.51-99.49-97.31-213.45-223.89-58.88-65.41-165.65-184.01-139.64-289.58,25.8-104.7,156.47-92.19,190.45-203.31,32.14-105.06-72.48-156.17-60.53-311.91,1.11-14.49,15.59-177.33,116.02-218.35,102.03-41.68,256.72,57.11,299.29,174.19,38.67,106.37-26.58,196.59,20.55,234.68,51.94,41.98,148.2-53.82,205.7-15.81,83.12,54.93-57.36,295.17,47.4,408.6,61.6,66.7,137.79,13.53,233.19,80.13,123.14,85.95,147.41,280.05,128.1,408.47-27.99,186.11-172.03,397.18-396.65,430.91Z"/>
          <g class="cls-38">
            <g>
              <path class="cls-27" d="m1019.44,1999.22l-7.17,4.19c-162.15-277.75-299.38-548.63-407.89-805.12-86.83-205.24-155.57-401.79-204.31-584.18-83.06-310.82-79.11-475.1-79.06-476.72l8.3.25c-.05,1.61-3.92,165.06,78.94,474.9,76.48,285.99,244.6,758.71,611.2,1386.67Z"/>
              <path class="cls-27" d="m409.07,643.63C198.42,495.66,112.27,290.41,111.42,288.36l7.68-3.16c.84,2.04,86.15,205.12,294.74,351.64l-4.77,6.8Z"/>
              <path class="cls-27" d="m619.19,1235.37c-268.24-81.8-418.87-178.93-498-246.01-86.18-73.07-108.31-126.13-109.21-128.35l7.7-3.12c.22.53,22.6,53.88,107.59,125.74,78.53,66.4,228.04,162.59,494.34,243.8l-2.42,7.94Z"/>
              <path class="cls-27" d="m880.2,1764.5c-489.1-33.94-700.55-231.06-702.63-233.04l5.74-6c.52.5,55.49,51.43,172.3,105.53,102.86,47.64,277.47,108.04,525.17,125.23l-.57,8.28Z"/>
              <path class="cls-27" d="m649.97,1091.91c-16.78,23.35-35.11,46.18-55.17,68.2l-6.14-5.59c131.02-143.87,188.49-323.54,213.62-448.92,27.25-135.92,23.42-238.97,23.38-239.99l8.3-.34c.04,1.03,3.9,105.08-23.54,241.97-21.5,107.26-66.5,253.95-160.46,384.69Z"/>
              <path class="cls-27" d="m862.36,1629.55c-9.06,12.61-18.69,25.06-28.93,37.36l-6.38-5.32c129.86-155.86,160.86-340.92,164-468.73,3.41-138.59-24.26-241.45-24.54-242.48l8.01-2.19c.28,1.04,28.27,105.07,24.83,244.88-2.93,119.07-29.82,287.37-137,436.49Z"/>
            </g>
          </g>
        </g>
        <g>
          <path class="cls-16" d="m2765.02,2573.47l-2624.45-22.69v67.12c0,18.22,11.45,33.71,26.95,36.47l742.12,132.18c8.81,1.57,17.74,1.99,26.63,1.24l1800.24-150.7c16.07-1.34,28.52-16.89,28.52-35.6v-28.02h0Z"/>
          <g>
            <path class="cls-16" d="m1799.22,2465.9l-1668.05,122.79c-29.85,2.2-54.12-21.15-54.12-52.16v-1242.15c0-31,24.27-56.14,54.12-56.14l59.01,34.01,1609.04-34.01c24.59,0,44.47,22.72,44.47,50.75v1122.88c0,28.03-19.88,52.21-44.47,54.02Z"/>
            <path class="cls-27" d="m1825.82,2465.9l-1668.05,122.79c-29.85,2.2-54.12-21.15-54.12-52.16v-1242.15c0-31,24.27-56.14,54.12-56.14h1668.05c24.59,0,44.47,22.72,44.47,50.75v1122.88c0,28.03-19.88,52.21-44.47,54.02Z"/>
            <path class="cls-6" d="m1773.85,2386.74l-1553.62,106.66c-24.29,1.67-44.03-17.5-44.03-42.81v-1087.5c0-25.31,19.74-45.92,44.03-46.02l1553.62-6.7c20.28-.09,36.69,18.53,36.69,41.58v990.52c0,23.05-16.41,42.87-36.69,44.26Z"/>
            <g>
              <polygon class="cls-27" points="771.25 1419.13 351.97 1420.22 351.91 1380.24 771.19 1380.38 771.25 1419.13"/>
              <polygon class="cls-27" points="968.69 1407.55 871.83 1407.72 871.79 1380.41 968.65 1380.44 968.69 1407.55"/>
              <polygon class="cls-27" points="968.75 1445.22 871.89 1445.67 871.85 1418.36 968.71 1418.11 968.75 1445.22"/>
              <polygon class="cls-27" points="1451.43 1442.98 1075.67 1444.72 1075.62 1417.84 1451.39 1416.87 1451.43 1442.98"/>
              <polygon class="cls-27" points="1513.11 1478.79 1141.08 1481.59 1141.04 1454.84 1513.07 1452.81 1513.11 1478.79"/>
              <polygon class="cls-27" points="1513.16 1514.88 1141.14 1518.76 1141.09 1492.01 1513.12 1488.9 1513.16 1514.88"/>
              <polygon class="cls-27" points="1513.22 1550.97 1141.19 1555.93 1141.15 1529.18 1513.18 1524.99 1513.22 1550.97"/>
              <polygon class="cls-27" points="968.81 1482.89 871.95 1483.62 871.91 1456.31 968.76 1455.78 968.81 1482.89"/>
              <polygon class="cls-27" points="968.86 1520.56 872.01 1521.57 871.96 1494.25 968.82 1493.45 968.86 1520.56"/>
              <polygon class="cls-27" points="968.92 1558.22 872.07 1559.51 872.02 1532.2 968.88 1531.11 968.92 1558.22"/>
              <polygon class="cls-27" points="968.98 1595.89 872.12 1597.46 872.08 1570.15 968.94 1568.78 968.98 1595.89"/>
              <polygon class="cls-27" points="1228.52 1591.68 990.12 1595.55 990.07 1568.48 1228.48 1565.11 1228.52 1591.68"/>
              <polygon class="cls-27" points="969.04 1633.56 872.18 1635.41 872.14 1608.1 969 1606.45 969.04 1633.56"/>
              <polygon class="cls-27" points="969.1 1671.22 872.24 1673.35 872.2 1646.04 969.05 1644.11 969.1 1671.22"/>
              <polygon class="cls-27" points="969.15 1708.89 872.3 1711.3 872.26 1683.99 969.11 1681.78 969.15 1708.89"/>
              <polygon class="cls-27" points="1340.28 1626.47 1075.95 1631.51 1075.91 1604.63 1340.24 1600.13 1340.28 1626.47"/>
              <polygon class="cls-27" points="1477.66 1660.04 1141.37 1667.44 1141.32 1640.68 1477.62 1633.99 1477.66 1660.04"/>
              <polygon class="cls-27" points="1477.71 1696.24 1141.42 1704.6 1141.38 1677.85 1477.67 1670.18 1477.71 1696.24"/>
              <polygon class="cls-27" points="969.21 1746.56 872.36 1749.25 872.32 1721.94 969.17 1719.45 969.21 1746.56"/>
              <polygon class="cls-27" points="969.27 1784.23 872.42 1787.2 872.38 1759.88 969.23 1757.12 969.27 1784.23"/>
              <polygon class="cls-27" points="969.33 1821.89 872.48 1825.14 872.43 1797.83 969.29 1794.78 969.33 1821.89"/>
              <polygon class="cls-27" points="969.39 1859.56 872.53 1863.09 872.49 1835.78 969.35 1832.45 969.39 1859.56"/>
              <polygon class="cls-27" points="969.45 1897.23 872.59 1901.04 872.55 1873.73 969.4 1870.12 969.45 1897.23"/>
              <polygon class="cls-27" points="969.5 1934.89 872.65 1938.98 872.61 1911.67 969.46 1907.78 969.5 1934.89"/>
              <polygon class="cls-27" points="969.56 1972.56 872.71 1976.93 872.67 1949.62 969.52 1945.45 969.56 1972.56"/>
              <polygon class="cls-27" points="969.62 2010.23 872.77 2014.88 872.73 1987.57 969.58 1983.12 969.62 2010.23"/>
              <polygon class="cls-27" points="969.68 2047.9 872.83 2052.83 872.79 2025.51 969.64 2020.78 969.68 2047.9"/>
              <polygon class="cls-27" points="969.74 2085.56 872.89 2090.77 872.84 2063.46 969.7 2058.45 969.74 2085.56"/>
              <polygon class="cls-27" points="969.8 2123.23 872.95 2128.72 872.9 2101.41 969.75 2096.12 969.8 2123.23"/>
              <polygon class="cls-27" points="969.85 2160.9 873 2166.67 872.96 2139.36 969.81 2133.79 969.85 2160.9"/>
              <polygon class="cls-27" points="969.91 2198.56 873.06 2204.61 873.02 2177.3 969.87 2171.45 969.91 2198.56"/>
              <polygon class="cls-27" points="969.97 2236.23 873.12 2242.56 873.08 2215.25 969.93 2209.12 969.97 2236.23"/>
              <polygon class="cls-27" points="970.03 2273.9 873.18 2280.51 873.14 2253.2 969.99 2246.79 970.03 2273.9"/>
              <polygon class="cls-27" points="970.09 2311.56 873.24 2318.46 873.2 2291.14 970.04 2284.45 970.09 2311.56"/>
              <polygon class="cls-27" points="970.14 2349.23 873.3 2356.4 873.25 2329.09 970.1 2322.12 970.14 2349.23"/>
              <polygon class="cls-27" points="970.2 2386.9 873.36 2394.35 873.31 2367.04 970.16 2359.79 970.2 2386.9"/>
              <polygon class="cls-27" points="1253.33 1407.05 989.17 1407.52 989.13 1380.45 1253.29 1380.54 1253.33 1407.05"/>
              <polygon class="cls-27" points="1452.55 2168.41 1076.82 2191.88 1076.78 2165 1452.51 2142.3 1452.55 2168.41"/>
              <polygon class="cls-27" points="1514.22 2200.65 1142.23 2224.97 1142.19 2198.22 1514.18 2174.68 1514.22 2200.65"/>
              <polygon class="cls-27" points="1514.28 2236.75 1142.28 2262.14 1142.24 2235.39 1514.24 2210.77 1514.28 2236.75"/>
              <polygon class="cls-27" points="1674.64 2261.44 1312.27 2287.22 1312.23 2260.82 1674.6 2235.79 1674.64 2261.44"/>
              <polygon class="cls-27" points="1674.69 2297.07 1312.33 2323.9 1312.29 2297.5 1674.65 2271.42 1674.69 2297.07"/>
              <polygon class="cls-27" points="1674.75 2332.7 1312.39 2360.57 1312.35 2334.17 1674.71 2307.05 1674.75 2332.7"/>
              <polygon class="cls-27" points="1254.47 2143.94 990.33 2159.68 990.29 2132.61 1254.42 2117.42 1254.47 2143.94"/>
              <polygon class="cls-27" points="1451.94 1769.42 1076.19 1780.95 1076.14 1754.06 1451.9 1743.32 1451.94 1769.42"/>
              <polygon class="cls-27" points="1513.61 1803.63 1141.59 1816.11 1141.55 1789.36 1513.57 1777.65 1513.61 1803.63"/>
              <polygon class="cls-27" points="1513.66 1839.72 1141.65 1853.28 1141.61 1826.53 1513.62 1813.74 1513.66 1839.72"/>
              <polygon class="cls-27" points="1513.72 1875.81 1141.71 1890.45 1141.67 1863.7 1513.68 1849.84 1513.72 1875.81"/>
              <polygon class="cls-27" points="1229.04 1923.93 990.64 1934 990.6 1906.94 1229 1897.36 1229.04 1923.93"/>
              <polygon class="cls-27" points="1340.79 1955.81 1076.47 1967.74 1076.43 1940.85 1340.75 1929.47 1340.79 1955.81"/>
              <polygon class="cls-27" points="1478.16 1985.81 1141.88 2001.96 1141.84 1975.2 1478.12 1959.76 1478.16 1985.81"/>
              <polygon class="cls-27" points="1478.21 2022.01 1141.94 2039.13 1141.9 2012.37 1478.17 1995.95 1478.21 2022.01"/>
              <polygon class="cls-27" points="1552.82 2054.19 1220.59 2072.07 1220.55 2045.48 1552.78 2028.3 1552.82 2054.19"/>
              <polygon class="cls-27" points="1552.87 2090.17 1220.65 2109.01 1220.61 2082.42 1552.83 2064.28 1552.87 2090.17"/>
              <polygon class="cls-27" points="1253.84 1738.65 989.69 1745.99 989.65 1718.92 1253.8 1712.13 1253.84 1738.65"/>
              <polygon class="cls-27" points="771.34 1479.67 531.36 1481.4 531.3 1441.94 771.29 1440.92 771.34 1479.67"/>
              <polygon class="cls-27" points="469.28 1481.84 514.49 1481.52 514.42 1442.02 469.22 1442.21 469.28 1481.84"/>
              <polygon class="cls-27" points="771.43 1535.37 531.44 1538.11 531.38 1498.66 771.37 1496.62 771.43 1535.37"/>
              <polygon class="cls-27" points="469.37 1538.81 514.57 1538.3 514.51 1498.8 469.31 1499.18 469.37 1538.81"/>
              <polygon class="cls-27" points="771.52 1591.07 531.53 1594.82 531.47 1555.37 771.46 1552.32 771.52 1591.07"/>
              <polygon class="cls-27" points="469.46 1595.79 514.66 1595.08 514.6 1555.58 469.4 1556.15 469.46 1595.79"/>
              <polygon class="cls-27" points="772.13 1986.44 352.87 2005.52 352.81 1965.54 772.07 1947.7 772.13 1986.44"/>
              <polygon class="cls-27" points="772.22 2046.99 532.25 2059 532.19 2019.55 772.16 2008.24 772.22 2046.99"/>
              <polygon class="cls-27" points="470.18 2062.11 515.38 2059.85 515.32 2020.35 470.12 2022.48 470.18 2062.11"/>
              <polygon class="cls-27" points="772.31 2102.69 532.34 2115.72 532.28 2076.26 772.25 2063.94 772.31 2102.69"/>
              <polygon class="cls-27" points="470.27 2119.09 515.47 2116.63 515.41 2077.13 470.21 2079.45 470.27 2119.09"/>
              <polygon class="cls-27" points="772.39 2158.39 532.43 2172.43 532.36 2132.98 772.33 2119.64 772.39 2158.39"/>
              <polygon class="cls-27" points="470.36 2176.06 515.55 2173.41 515.49 2133.91 470.3 2136.42 470.36 2176.06"/>
              <polygon class="cls-27" points="771.6 1647.15 352.33 1655.47 352.27 1615.49 771.54 1608.4 771.6 1647.15"/>
              <polygon class="cls-27" points="771.7 1707.69 531.72 1713.55 531.65 1674.1 771.64 1668.94 771.7 1707.69"/>
              <polygon class="cls-27" points="469.65 1715.07 514.84 1713.97 514.78 1674.47 469.58 1675.44 469.65 1715.07"/>
              <polygon class="cls-27" points="771.78 1763.39 531.8 1770.26 531.74 1730.81 771.72 1724.64 771.78 1763.39"/>
              <polygon class="cls-27" points="469.73 1772.04 514.93 1770.75 514.87 1731.25 469.67 1732.41 469.73 1772.04"/>
              <polygon class="cls-27" points="771.96 1875.52 531.98 1884.42 531.92 1844.97 771.9 1836.77 771.96 1875.52"/>
              <polygon class="cls-27" points="469.91 1886.73 515.11 1885.05 515.05 1845.55 469.85 1847.09 469.91 1886.73"/>
              <polygon class="cls-27" points="772.04 1931.22 532.07 1941.13 532.01 1901.68 771.98 1892.47 772.04 1931.22"/>
              <polygon class="cls-27" points="470 1943.7 515.2 1941.83 515.14 1902.33 469.94 1904.06 470 1943.7"/>
              <polygon class="cls-27" points="771.87 1819.09 531.89 1826.97 531.83 1787.52 771.81 1780.34 771.87 1819.09"/>
              <polygon class="cls-27" points="469.82 1829.01 515.02 1827.53 514.96 1788.03 469.76 1789.38 469.82 1829.01"/>
              <polygon class="cls-27" points="772.48 2214.07 353.23 2240.36 353.17 2200.38 772.42 2175.32 772.48 2214.07"/>
              <polygon class="cls-27" points="772.57 2274.61 532.61 2290.76 532.55 2251.31 772.51 2235.86 772.57 2274.61"/>
              <polygon class="cls-27" points="470.54 2294.94 515.74 2291.89 515.68 2252.39 470.48 2255.3 470.54 2294.94"/>
              <polygon class="cls-27" points="772.66 2330.31 532.7 2347.47 532.63 2308.02 772.6 2291.56 772.66 2330.31"/>
              <polygon class="cls-27" points="470.63 2351.91 515.83 2348.68 515.76 2309.18 470.57 2312.28 470.63 2351.91"/>
              <polygon class="cls-27" points="772.75 2386.01 532.78 2404.18 532.72 2364.73 772.69 2347.26 772.75 2386.01"/>
              <polygon class="cls-27" points="470.72 2408.88 515.91 2405.46 515.85 2365.96 470.66 2369.25 470.72 2408.88"/>
              <polygon class="cls-27" points="823.69 2382.35 814.46 2383.05 812.91 1380.39 822.14 1380.4 823.69 2382.35"/>
            </g>
            <path class="cls-27" d="m1050.7,1272.23c0,11.54-8.58,20.93-19.19,20.96-10.61.03-19.23-9.32-19.23-20.88s8.61-20.95,19.23-20.96c10.6,0,19.19,9.34,19.19,20.89Z"/>
            <path class="cls-22" d="m157.76,2588.69l1659.61-122.17,8.45-.62c11.28-.83,21.54-6.41,29.38-14.87-119.43-6.54-193.61-48.92-241.46-92.71-96.09-87.95-79.43-174.67-183.05-232.49-129.25-72.12-230.88,19.26-328.96-70.9-59.46-54.67-30.27-95.43-103.44-177.12-81.04-90.48-133.8-60.06-215.24-141.5-102.98-102.97-51.47-183.07-140.18-257-107.61-89.68-223.66-6.68-326.09-92.68-44.18-37.09-68.42-91.03-81.08-148.38h-77.94c-29.85,0-54.12,25.14-54.12,56.14v1242.15c0,31,24.27,54.35,54.11,52.15Z"/>
          </g>
          <path class="cls-8" d="m1904.41,2459.09l-1763.84,129.25,769.07,136.98c8.81,1.57,17.74,1.99,26.63,1.24l1828.76-153.09-832.56-113.5c-9.31-1.27-18.7-1.56-28.06-.88Z"/>
          <polygon class="cls-6" points="397.94 2589.45 1866.39 2480.24 2320.86 2541.7 865.06 2658.44 397.94 2589.45"/>
        </g>
        <g>
          <path class="cls-30" d="m2078.21,503.87l-1518.74-49.91c-50.93-1.67-92.39,38.5-92.39,89.74v1480.24c0,51.24,41.46,91.01,92.39,88.83l1518.75-64.85c43.93-1.88,79.4-41.74,79.4-89.05V592.14c0-47.31-35.47-86.83-79.4-88.27Z"/>
          <path class="cls-4" d="m559.47,2083.27c-34.64,1.43-62.8-25.64-62.8-60.47V544.55c0-34.83,28.16-62.18,62.8-61.09l1518.75,47.87c29.92.94,54.12,27.84,54.12,60.09v1368.43c0,32.24-24.19,59.38-54.11,60.62l-1518.75,62.81Z"/>
          <path class="cls-25" d="m2078.21,503.87l-1518.75-49.91c-50.93-1.67-92.39,38.5-92.39,89.74v66.55l1690.54,43.33v-61.45c0-47.31-35.47-86.83-79.4-88.27Z"/>
          <path class="cls-27" d="m631.35,539.49c0,16.65-13.4,29.77-29.95,29.31-16.58-.46-30.04-14.36-30.04-31.05s13.46-29.81,30.04-29.31c16.55.5,29.95,14.41,29.95,31.05Z"/>
          <path class="cls-27" d="m735.91,542.52c0,16.57-13.27,29.63-29.67,29.17-16.42-.45-29.75-14.29-29.75-30.9s13.33-29.67,29.75-29.17c16.4.5,29.67,14.33,29.67,30.9Z"/>
          <path class="cls-27" d="m839.47,545.53c0,16.49-13.15,29.49-29.39,29.04-16.26-.45-29.47-14.22-29.47-30.75s13.2-29.53,29.47-29.04c16.24.49,29.39,14.26,29.39,30.75Z"/>
          <g>
            <polygon class="cls-27" points="1376.96 795.46 574.77 781.05 574.77 828.21 1376.96 840.91 1376.96 795.46"/>
            <polygon class="cls-27" points="1980.07 806.3 1980.07 850.45 2064.94 851.79 2064.94 807.83 1980.07 806.3"/>
          </g>
          <g>
            <polygon class="cls-27" points="744.36 943.59 574.77 941.78 574.77 893.14 744.36 895.32 744.36 943.59"/>
            <polygon class="cls-27" points="1650.38 953.23 852.63 944.74 852.63 896.72 1650.38 906.98 1650.38 953.23"/>
            <polygon class="cls-27" points="1017.97 1027.9 852.63 1026.77 852.63 978.75 1017.97 980.25 1017.97 1027.9"/>
            <polygon class="cls-27" points="1901.82 1033.97 1123.54 1028.63 1123.54 981.21 1901.82 988.27 1901.82 1033.97"/>
            <polygon class="cls-27" points="1017.97 1109.31 852.63 1108.8 852.63 1060.78 1017.97 1061.65 1017.97 1109.31"/>
            <polygon class="cls-27" points="1901.82 1112.02 1123.54 1109.63 1123.54 1062.21 1901.82 1066.33 1901.82 1112.02"/>
            <polygon class="cls-27" points="744.36 1190.91 574.77 1191.03 574.77 1142.39 744.36 1142.64 744.36 1190.91"/>
            <polygon class="cls-27" points="1650.38 1190.26 852.63 1190.83 852.63 1142.81 1650.38 1144.01 1650.38 1190.26"/>
            <polygon class="cls-27" points="1017.97 1272.11 852.63 1272.86 852.63 1224.84 1017.97 1224.46 1017.97 1272.11"/>
            <polygon class="cls-27" points="1901.82 1268.14 1123.54 1271.64 1123.54 1224.22 1901.82 1222.44 1901.82 1268.14"/>
            <polygon class="cls-27" points="1017.97 1353.52 852.63 1354.89 852.63 1306.87 1017.97 1305.86 1017.97 1353.52"/>
            <polygon class="cls-27" points="1901.82 1346.19 1123.54 1352.64 1123.54 1305.22 1901.82 1300.5 1901.82 1346.19"/>
            <polygon class="cls-27" points="1017.97 1434.92 852.63 1436.92 852.63 1388.9 1017.97 1387.27 1017.97 1434.92"/>
            <polygon class="cls-27" points="1901.82 1424.25 1123.54 1433.65 1123.54 1386.22 1901.82 1378.55 1901.82 1424.25"/>
            <polygon class="cls-27" points="1287.3 1512.05 1126.09 1514.61 1126.09 1467.19 1287.3 1464.99 1287.3 1512.05"/>
            <polygon class="cls-27" points="2022.59 1500.39 1390.25 1510.42 1390.25 1463.59 2022.59 1454.96 2022.59 1500.39"/>
            <polygon class="cls-27" points="744.36 1603.1 574.77 1606.44 574.77 1557.8 744.36 1554.84 744.36 1603.1"/>
            <polygon class="cls-27" points="1650.38 1585.3 852.63 1600.98 852.63 1552.95 1650.38 1539.05 1650.38 1585.3"/>
            <polygon class="cls-27" points="1017.97 1679.13 852.63 1683.01 852.63 1634.98 1017.97 1631.48 1017.97 1679.13"/>
            <polygon class="cls-27" points="1901.82 1658.42 1123.54 1676.66 1123.54 1629.24 1901.82 1612.72 1901.82 1658.42"/>
            <polygon class="cls-27" points="1017.97 1760.53 852.63 1765.04 852.63 1717.01 1017.97 1712.88 1017.97 1760.53"/>
            <polygon class="cls-27" points="1901.82 1736.47 1123.54 1757.66 1123.54 1710.24 1901.82 1690.78 1901.82 1736.47"/>
            <polygon class="cls-27" points="744.36 1850.42 574.77 1855.68 574.77 1807.04 744.36 1802.16 744.36 1850.42"/>
            <polygon class="cls-27" points="1650.38 1822.33 852.63 1847.07 852.63 1799.04 1650.38 1776.07 1650.38 1822.33"/>
            <polygon class="cls-27" points="1017.97 1923.34 852.63 1929.1 852.63 1881.07 1017.97 1875.69 1017.97 1923.34"/>
            <polygon class="cls-27" points="1901.82 1892.59 1123.54 1919.67 1123.54 1872.25 1901.82 1846.89 1901.82 1892.59"/>
          </g>
          <g class="cls-36">
            <path class="cls-27" d="m1487.87,1072.92c-177.39-258.12-484.42-175.99-678.66-461.18-35.03-51.43-58.8-103.77-75.1-152.03l-174.64-5.74c-50.93-1.67-92.39,38.5-92.39,89.74v1480.24c0,51.24,41.46,91.01,92.39,88.83l1463.12-62.48c-33.52-48.34-325.45-227.39-400.86-502.31-68.97-251.41-26.84-319.35-133.86-475.07Z"/>
          </g>
        </g>
        <g>
          <path class="cls-26" d="m2396.6,1623.85c0-154.17-142.21-274.53-311.59-269.02-96.46,3.14-180.39,46.62-232.79,110.81,0-.02-.01-.04-.02-.06-.32.4-.63.81-.95,1.21-.91,1.12-1.78,2.27-2.67,3.4-1.62,2.07-3.21,4.16-4.77,6.27-.92,1.25-1.82,2.5-2.72,3.77-1.5,2.11-2.95,4.24-4.38,6.38-.82,1.23-1.65,2.45-2.44,3.69-1.59,2.48-3.13,4.99-4.64,7.52-.55.92-1.12,1.81-1.66,2.73-1.99,3.43-3.9,6.9-5.72,10.41-.49.93-.93,1.88-1.4,2.82-1.33,2.63-2.63,5.28-3.87,7.96-.61,1.31-1.18,2.64-1.76,3.96-1.05,2.37-2.06,4.75-3.03,7.15-.56,1.39-1.12,2.79-1.66,4.2-.95,2.46-1.84,4.95-2.71,7.44-.45,1.31-.92,2.6-1.36,3.92-1.03,3.14-2,6.31-2.9,9.49-.19.67-.41,1.32-.59,1.99-1.06,3.84-2.02,7.72-2.89,11.63-.26,1.15-.47,2.31-.71,3.47-.58,2.8-1.14,5.61-1.63,8.44-.25,1.44-.47,2.89-.69,4.34-.4,2.62-.76,5.25-1.08,7.89-.18,1.48-.35,2.97-.5,4.46-.28,2.79-.5,5.59-.69,8.4-.09,1.31-.2,2.61-.27,3.92-.21,4.11-.34,8.23-.34,12.39,0,98.93,59.92,186.2,149.75,232.93,8.26,4.3,16.78,8.25,25.53,11.85,4.38,1.8,8.82,3.51,13.32,5.13,31.62,11.36,66.04,18.09,102.24,19.15h0c4.99.15,9.95.17,14.89.1,1.67-.02,3.31-.12,4.98-.17,3.26-.09,6.53-.19,9.77-.38,1.98-.11,3.94-.29,5.92-.44,2.9-.22,5.79-.44,8.67-.73,2.1-.21,4.19-.48,6.29-.73,2.72-.33,5.43-.67,8.13-1.06,2.15-.31,4.29-.67,6.43-1.02,2.61-.43,5.21-.89,7.8-1.38,2.17-.41,4.32-.85,6.47-1.31,2.53-.54,5.05-1.1,7.56-1.69,2.15-.51,4.29-1.03,6.43-1.58,2.48-.64,4.94-1.32,7.39-2.01,2.11-.6,4.22-1.2,6.31-1.83.77-.24,1.56-.44,2.33-.68-.02-.02-.03-.04-.05-.06,117.19-36.7,202.29-136.22,202.29-255.07Z"/>
          <g>
            <path class="cls-29" d="m2373.33,1623.89c0,153.78-141.49,274.3-310.02,269.38-162.26-4.74-289.42-124.83-289.42-268.39s127.17-264.07,289.42-269.34c168.53-5.48,310.02,114.58,310.02,268.35Z"/>
            <g>
              <path class="cls-27" d="m1987.27,1698.37l-120.32-61.23v-19.72l120.32-69.67v33.56l-83.24,44.46,83.24,39.17v33.42Z"/>
              <path class="cls-27" d="m2115.26,1520.57l-68.43,206.8-34.37-.35,67.89-205.98,34.92-.47Z"/>
              <path class="cls-27" d="m2140.69,1665.41l87.93-40.13-87.93-44.99v-34.16l128.24,70.28v20.65l-128.24,62.37v-34.02Z"/>
            </g>
            <g class="cls-37">
              <path class="cls-3" d="m2136.6,1826.35c-36.57-80.51.4-154.92-48.98-206.56-49.6-51.87-113.22-3.38-180.65-44.89-25.79-15.87-54.28-46.25-75.34-108.89-36.32,44.59-57.75,99.57-57.75,158.87,0,143.56,127.17,263.65,289.42,268.39,38.04,1.11,74.74-4.19,108.8-14.89-16.83-17.54-27.93-35.35-35.51-52.03Z"/>
            </g>
          </g>
        </g>
        <g>
          <path class="cls-10" d="m1071.56,1414.41c27.73-29.6-49.03-140.82-90.11-189.55-35.89-42.57-72.78-86.33-118.08-80.79-39.77,4.86-78.47,46.81-80.79,87.01-6.24,108.14,249.57,225.42,288.99,183.34Z"/>
          <path class="cls-35" d="m738.65,2557.25c-5.22,4.24-6.18,14.84-6.81,21.76-.28,3.09-.42,4.64-.08,5.73,2.52,7.97,17.98,8.81,42.22,11.29,38.31,3.91,49.7,6.93,52.7,1.23,2.81-5.34-3.99-14.09-4.76-15.05-4.12-5.19-9.17-7.07-18.94-10.28-18.07-5.95-30.28-9.21-33.98-10.19-23.08-6.16-26.94-7.27-30.37-4.48Z"/>
          <path class="cls-5" d="m761.43,2522.25l3.83,43.65c-1.09,2.11-14.06,8.43-24.37,3.01l-9.85-42.91,30.39-3.75Z"/>
          <path class="cls-18" d="m1042.44,2551.64c-6.26,6.91-7.68,19.63-2.24,25.9,5.35,6.16,13.39,1.54,36.19,2.22,24.43.73,30.8,6.5,47.4,1.92,6.7-1.85,18.55-6.35,18.32-11.14-.16-3.37-6.19-5.11-26.32-11.85-28.58-9.57-28.46-10.1-34.53-11.1-15.25-2.53-30.56-5.06-38.82,4.06Z"/>
          <path class="cls-31" d="m1058.09,2511.8l12.25,40.75c-.93,2.19-13.38,9.48-24.07,4.86l-18.19-39.55,30.01-6.06Z"/>
          <path class="cls-12" d="m949.24,1619.31c1.76,136.95,11.1,290.94,33.53,458.23,22.16,165.35,53.22,314.75,87.1,446.12-15.63,4.21-31.26,8.41-46.89,12.62-39.66-36.98-89.68-95.18-113.82-177.44-14.98-51.05-9.99-77.28-19.49-140.08-15.13-99.98-45.78-152.36-77.45-232.98-28.46-72.45-62.11-178.77-80.15-320.9,72.39-15.19,144.79-30.39,217.18-45.58Z"/>
          <path class="cls-12" d="m808.15,1606.24c-9.57,174.18-17.44,351.6-23.4,532.17-4.47,135.49-7.76,269.27-9.94,401.29-15.96,1.97-31.93,3.94-47.9,5.91-15.43-28.72-35.92-72.64-49.95-128.92-17.05-68.36-13.1-108.96-20.58-179.8-8.39-79.46-20.57-96.77-42.16-197.02-43.81-203.44-65.72-305.16-16.84-368.43,15.86-20.54,65.6-72.07,210.78-65.2Z"/>
          <path class="cls-10" d="m575.46,1168.48c37.39-10.51,92.19-22.81,159.3-26.6,95.72-5.41,143.58-8.11,177.49,14.68,78.33,52.65,17.69,174.15,49.75,475.36,4.58,43.01,5.61,86.33,8.92,129.47,5.49,71.41,6.74,75.29,1.77,82.52-31.16,45.38-147.41-23.07-317.8,3.99-95.34,15.14-138.57,50.01-164.69,24.86-30.46-29.33-4.33-108.24,18.16-176.16,25.82-77.97,41.77-78.97,56.42-137.69,15.32-61.37,6.05-92.97,3.67-189.75-1.14-46.31-.9-115.22,7.01-200.67Z"/>
          <path class="cls-2" d="m807.16,1733.95c-44.53-3.49-73.43,21.69-111.87,2.07-52.71-26.91-69.65-110.62-66.29-169.87,5.1-90.02,56.51-113.75,47.65-171.94-4.79-31.47-27.26-73.25-107.93-115.93-1.08,35.93-.87,66.55-.27,90.87,2.39,96.78,11.65,128.38-3.67,189.75-14.65,58.72-30.6,59.72-56.42,137.69-22.49,67.92-48.62,146.83-18.16,176.16,26.12,25.16,69.36-9.72,164.69-24.86,146.82-23.31,253.38,24.22,300,8.8-56.34-93.1-107.44-119.59-147.74-122.74Z"/>
          <path class="cls-10" d="m636.2,1174.66c-31.81-26.13-95.76,3.45-112.85,11.36-95.33,44.1-180.93,162.93-159.72,288.51,3.18,18.83,17.93,106.93,92.52,149.61,67.31,38.51,158.19,28.61,231.01-25.94,9.95-8.83,19.9-17.66,29.86-26.49,9.79-10.58,19.58-21.17,29.37-31.75-15.39-12.8-41.54-31.27-78.26-43.12-48.42-15.62-83.67,12.41-106.13-8.9-15.5-14.71-15.54-40.69-11.71-56.44,7.72-31.73,35.69-40.66,59.04-63.18,54.86-52.92,64.96-162.36,26.88-193.66Z"/>
          <g>
            <polygon class="cls-20" points="1093.28 1584.62 666.97 1578.26 780.33 1632.97 1094.37 1612.42 1093.28 1584.62"/>
            <path class="cls-1" d="m651.92,1589.59h0c0,7.98,4.99,15.11,12.49,17.83l136.22,53.4.62-37.02-134.29-45.54c-7.54-2.17-15.05,3.49-15.05,11.33Z"/>
          </g>
          <path class="cls-13" d="m717.57,1564.36c-2.62-.58,12.75-31.19,24.81-27.66,12.06,3.53,71.05,37.72,76.41,51.8l5.36,14.07s-25.73,2.01-41.69-3.35c-15.96-5.36-43.61-30.11-64.89-34.86Z"/>
          <g>
            <path class="cls-9" d="m741.91,1037.3c.24,28.38-2.93,50.88-5.92,66.29-3.43,17.66-5.9,22.22-9.06,25.92-4.75,5.57-11.95,10.25-52.61,20.33-22.13,5.48-24.97,5.34-25.46,7.53-2.38,10.71,57.95,47.22,120.29,38.42,38.15-5.39,72.86-27.15,70.73-38.58-2.15-11.5-40.25-5.33-51.61-26.14-7.9-14.48.96-35.03,11.43-52.05-10.14-19-47.65-22.73-57.79-41.73Z"/>
            <g>
              <path class="cls-12" d="m812.72,1048.52c9-11.96,9.56-32.84-.81-46.04-8.93-11.36-22.98-12.98-31.39-13.95-24.37-2.81-55.13,7.36-65.82,29.79-6.34,13.29,7.37,40.92,9.52,45.88,2.43,5.61,6.84,7.54,10.92,11.79,5.65,5.89,14.5,15.25,28.94,30.91,1.12-4.62,2.83-10.34,5.54-16.54,1.04-2.39,5.23-11.71,11.57-19.43,12.7-15.49,23-11.07,31.54-22.41Z"/>
              <path class="cls-23" d="m743.47,1093.73s16.02,26.29,47.93,24.21c28.56-1.86,32.75-65.92,14.5-79.51-6.09-4.53-18.28-6.42-28.19-3.64-5.85,1.64-7.84,4.07-17.45,6.57-8.87,2.3-11.38,1.32-14.06,3.57-3.35,2.82-5.8,9.73-.21,28.46-5.45-5.52-11.99-7.64-16.63-5.45-.74.35-2.7,1.68-3.8,3.71-4,7.32,2.69,16.66,17.91,22.08Z"/>
              <path class="cls-12" d="m744.9,1041.1c1.38,1.03-2.83,6.17-3.15,13.44-.61,14.12,13.68,31.07,28.26,32.51,8.62.85,10.99-4.35,25.24-5.85,8.82-.93,16.17.19,20.79,1.2,4.48,15.49.26,30.93-10.09,38.09-11.14,7.71-25.38,3.03-31.33,1.08-3.98-1.31-16.74-5.48-23.41-17.18-6.95-12.19-.13-19.54-8.1-27.79-4.02-4.16-9.3-5.96-14.44-14.01-1.4-2.19-2.33-4.12-2.9-5.43,7.37-7.81,17.13-17.55,19.12-16.06Z"/>
              <path class="cls-27" d="m790.03,1095.23s6.17-3.22,16.83-2.62c.52.03,1.09-.12,1.16-.39.24-1.01-6.59-5.55-12.9-3.78-4.47,1.26-7.95,5.49-7.35,6.57.26.45,1.27.39,2.26.22Z"/>
            </g>
          </g>
          <g>
            <g>
              <path class="cls-28" d="m812.56,1364.03l-30.05,273.61c-1.04,9.44,12.18,23.51,21.67,23.06l440.83-27.06c7.24-.34,13.28-5.68,14.5-12.82l55.33-264.26c1.65-9.62-15.64-19.55-25.39-19.28l-461.97,12.99c-7.71.22-14.08,6.09-14.93,13.77Z"/>
              <path class="cls-7" d="m822.64,1372.01l-30.05,273.61c-1.04,9.44,6.61,17.57,16.09,17.13l446.41-21.13c7.24-.34,13.27-5.68,14.5-12.82l45.61-265.47c1.65-9.62-5.91-18.34-15.67-18.07l-461.97,12.99c-7.71.21-14.09,6.09-14.93,13.76Z"/>
            </g>
            <path class="cls-15" d="m1084.77,1577.5c-38.98-16.52-25.22-48.03-71.25-87.28-60.72-51.79-122.62-29.33-144.28-69.47-6.75-12.5-9.97-31.96,1.78-63.44l-33.45.94c-7.71.21-14.09,6.09-14.93,13.76l-30.05,273.61c-1.04,9.44,6.61,17.57,16.09,17.13l446.41-21.13c7.24-.34,13.27-5.67,14.5-12.82l6.29-36.63c-13.55-7.54-29.73-14.39-48.62-18.22-65.49-13.28-97.62,22.58-142.5,3.56Z"/>
          </g>
          <path class="cls-24" d="m1283.22,1603.34c.73-2.2-.81-4.48-3.13-4.59-9.44-.48-31.32-.68-43.4,6.72-15.69,9.61-35.98,27.15-18.9,36l15.96,8.27c.73.38,1.53.5,2.33.32,5.67-1.25,29.53-6.54,32.14-7.85,2.38-1.2,11.47-28.2,14.99-38.86Z"/>
        </g>
        <g>
          <path class="cls-21" d="m2617.81,704.07c0-254.21-234.48-452.66-513.77-443.57-159.05,5.17-297.43,76.87-383.83,182.72-.01-.03-.02-.06-.03-.09-.54.66-1.04,1.34-1.57,2-1.49,1.85-2.94,3.74-4.4,5.61-2.67,3.41-5.3,6.85-7.86,10.34-1.51,2.06-3,4.13-4.48,6.21-2.47,3.47-4.87,6.99-7.23,10.53-1.35,2.03-2.71,4.04-4.03,6.09-2.63,4.09-5.16,8.23-7.65,12.4-.9,1.51-1.85,2.99-2.73,4.51-3.28,5.65-6.43,11.37-9.44,17.16-.8,1.53-1.53,3.1-2.31,4.65-2.19,4.34-4.33,8.71-6.37,13.12-1,2.16-1.95,4.35-2.91,6.53-1.72,3.91-3.4,7.83-5,11.79-.93,2.3-1.85,4.6-2.74,6.92-1.56,4.06-3.04,8.16-4.47,12.27-.75,2.15-1.52,4.29-2.24,6.46-1.7,5.18-3.29,10.4-4.79,15.65-.31,1.1-.67,2.18-.98,3.28-1.75,6.34-3.33,12.74-4.77,19.18-.43,1.9-.77,3.81-1.17,5.72-.97,4.62-1.88,9.25-2.68,13.92-.41,2.38-.77,4.77-1.14,7.16-.66,4.32-1.26,8.66-1.78,13.01-.29,2.44-.58,4.89-.83,7.35-.47,4.59-.83,9.22-1.14,13.85-.14,2.16-.33,4.3-.44,6.47-.34,6.77-.55,13.57-.55,20.42,0,163.13,98.8,307.02,246.91,384.06,13.62,7.08,27.67,13.61,42.1,19.54,7.23,2.97,14.55,5.79,21.97,8.45,52.14,18.73,108.89,29.83,168.57,31.58h0c8.22.24,16.4.28,24.54.16,2.75-.04,5.47-.19,8.21-.27,5.38-.16,10.77-.32,16.12-.63,3.27-.19,6.5-.48,9.75-.73,4.77-.36,9.55-.72,14.29-1.21,3.47-.35,6.91-.79,10.36-1.21,4.48-.54,8.96-1.1,13.4-1.75,3.55-.52,7.07-1.1,10.6-1.69,4.3-.71,8.59-1.46,12.86-2.27,3.57-.68,7.12-1.41,10.66-2.16,4.17-.88,8.33-1.81,12.46-2.79,3.55-.84,7.08-1.7,10.6-2.6,4.09-1.06,8.15-2.17,12.19-3.32,3.48-.99,6.96-1.97,10.41-3.02,1.27-.39,2.58-.72,3.84-1.12-.03-.03-.05-.06-.08-.09,193.23-60.52,333.55-224.59,333.55-420.57Z"/>
          <path class="cls-17" d="m2579.44,704.14c0,253.55-233.29,452.28-511.18,444.17-267.53-7.81-477.21-205.83-477.21-442.53s209.68-435.41,477.21-444.11c277.89-9.04,511.18,188.92,511.18,442.47Z"/>
          <g>
            <path class="cls-27" d="m1872.89,939.86c-16.34-.28-30.54-2.31-42.62-6.07v-62.57c12.39,3.38,23.71,5.13,33.97,5.25,15.89.19,27.3-4.84,34.18-15.1,6.89-10.27,10.34-26.39,10.34-48.37v-334.58l73.4-1.73v336.26c0,41.95-9.29,73.79-27.81,95.46-18.47,21.6-45.66,32.07-81.46,31.45Z"/>
            <path class="cls-27" d="m2340.21,794.54c0,39.04-14.03,69.66-42,91.78-27.83,22.01-66.33,32.61-115.29,31.88-44.74-.67-84.03-9.76-117.98-27.18v-83.19c27.89,12.89,51.61,22.04,71.1,27.42,19.55,5.39,37.49,8.17,53.8,8.3,19.64.17,34.74-3.51,45.29-11.05,10.57-7.55,15.85-18.86,15.85-33.93,0-8.41-2.33-15.9-6.99-22.47-4.65-6.57-11.48-12.88-20.48-18.94-8.98-6.05-27.23-15.7-54.69-28.91-25.61-12.18-44.74-23.85-57.44-35.01-12.68-11.14-22.81-24.11-30.35-38.91-7.53-14.79-11.3-32.09-11.3-51.93,0-37.38,12.4-66.98,37.25-88.89,24.96-22,59.66-33.55,104.23-34.57,22.03-.51,43.12,1.65,63.27,6.49,20.22,4.85,41.43,11.88,63.67,21.06l-29.49,71.69c-22.9-9.09-41.77-15.38-56.65-18.86-14.84-3.47-29.4-5.09-43.69-4.86-16.93.28-29.89,4.47-38.91,12.59-9,8.11-13.49,18.55-13.49,31.36,0,7.96,1.82,14.87,5.45,20.76,3.63,5.89,9.43,11.56,17.38,17.02,7.96,5.47,26.86,15.29,56.81,29.51,39.84,18.95,67.31,38.12,82.22,57.45,14.94,19.38,22.44,43.18,22.44,71.39Z"/>
          </g>
          <g class="cls-40">
            <path class="cls-34" d="m2189.11,1037.96c-60.3-132.76.66-255.43-80.76-340.58-81.78-85.53-186.68-5.58-297.87-74.02-42.52-26.17-89.5-76.25-124.22-179.55-59.89,73.52-95.22,164.18-95.22,261.95,0,236.7,209.68,434.72,477.21,442.53,62.73,1.83,123.24-6.91,179.4-24.55-27.75-28.92-46.06-58.29-58.55-85.79Z"/>
          </g>
        </g>
      </g>
    </g>
  </g>
</svg>